<svg version="1.1" viewBox="0 0 109.48 20.859" xmlns="http://www.w3.org/2000/svg">
 <g transform="translate(-30 -54.958)">
  <path d="m32.617 55.474h104.25c1.1726 0 2.1167.94403 2.1167 2.1167v15.61c0 1.1726-.94404 2.1167-2.1167 2.1167h-104.25c-1.1726 0-2.1167-.94403-2.1167-2.1167v-15.61c0-1.1726.94403-2.1167 2.1167-2.1167z" fill="none" stroke="#000"/>
  <g transform="translate(-18.521 .18899)" stroke-width=".26458" style="inline-size:40.3804;white-space:pre" aria-label="CODE">
   <path d="m59.201 61.426q-1.4194 0-2.2324 1.006-.81304 1.006-.81304 2.7767 0 1.8535.77859 2.8043.78548.95084 2.2669.95084.64079 0 1.2402-.12402.59945-.13091 1.2471-.33073v1.4125q-1.1851.44786-2.6872.44786-2.2118 0-3.3969-1.3367-1.1851-1.3436-1.1851-3.8378 0-1.571.57189-2.7492.57878-1.1782 1.6674-1.8052 1.0886-.62701 2.5563-.62701 1.5434 0 2.8525.64768l-.59256 1.3711q-.50987-.24116-1.0818-.4203-.565-.18604-1.192-.18604z"/>
   <path d="m72.802 65.181q0 2.4598-1.2333 3.8241-1.2265 1.3643-3.4795 1.3643-2.2807 0-3.5071-1.3505-1.2196-1.3574-1.2196-3.8516t1.2265-3.8309q1.2333-1.3367 3.514-1.3367 2.2462 0 3.4727 1.3574 1.2265 1.3574 1.2265 3.8241zm-7.6894 0q0 1.8604.75103 2.825.75103.95774 2.2255.95774 1.4676 0 2.2118-.95084.75103-.95085.75103-2.8319 0-1.8535-.74414-2.8112-.73725-.95774-2.2049-.95774-1.4814 0-2.2393.95774-.75103.95774-.75103 2.8112z"/>
   <path d="m83.158 65.099q0 2.4942-1.3849 3.8172-1.3849 1.316-3.9894 1.316h-2.8181v-10.073h3.1144q2.4047 0 3.7414 1.2954t1.3367 3.6449zm-1.7363.05512q0-3.6173-3.3831-3.6173h-1.4263v7.3105h1.1713q3.638 0 3.638-3.6931z"/>
   <path d="m91.02 70.232h-5.6982v-10.073h5.6982v1.3918h-4.0514v2.7423h3.7965v1.378h-3.7965v3.1626h4.0514z"/>
  </g>
  <path transform="translate(-10.583)" d="m89.78 55.458h57.665c1.1726 0 2.1167.94403 2.1167 2.1167v15.626c0 1.1726-.94403 2.1167-2.1167 2.1167h-57.665c-1.1726 0-2.1167-.94403-2.1167-2.1167v-15.626c0-1.1726.94403-2.1167 2.1167-2.1167z" stroke="#000"/>
  <g fill="#fff" stroke-width=".26458" aria-label="VECTOR">
   <path d="m89.16 60.256h1.7088l-3.5278 10.073h-1.7363l-3.514-10.073h1.695l2.1015 6.2632q.16536.44786.3514 1.1576.18604.7028.24116 1.0473.08957-.52365.27561-1.2127.18604-.68902.30317-1.0197z"/>
   <path d="m97.897 70.33h-5.6982v-10.073h5.6982v1.3918h-4.0514v2.7423h3.7965v1.378h-3.7965v3.1626h4.0514z"/>
   <path d="m104.36 61.524q-1.4194 0-2.2324 1.006t-.81304 2.7767q0 1.8535.77859 2.8043.78548.95085 2.2669.95085.64079 0 1.2402-.12402.59945-.13091 1.2471-.33073v1.4125q-1.1851.44786-2.6872.44786-2.2118 0-3.3969-1.3367-1.1851-1.3436-1.1851-3.8378 0-1.571.57188-2.7492.57878-1.1782 1.6674-1.8052t2.5563-.62701q1.5434 0 2.8525.64768l-.59256 1.3711q-.50987-.24116-1.0818-.4203-.565-.18604-1.192-.18604z"/>
   <path d="m112.5 70.33h-1.6468v-8.661h-2.9628v-1.4125h7.5723v1.4125h-2.9628z"/>
   <path d="m125.95 65.279q0 2.4598-1.2333 3.8241-1.2265 1.3643-3.4796 1.3643-2.2806 0-3.5071-1.3505-1.2196-1.3574-1.2196-3.8516t1.2265-3.8309q1.2333-1.3367 3.514-1.3367 2.2462 0 3.4727 1.3574 1.2264 1.3574 1.2264 3.8241zm-7.6894 0q0 1.8604.75103 2.825.75103.95774 2.2255.95774 1.4676 0 2.2118-.95085.75103-.95084.75103-2.8319 0-1.8535-.74414-2.8112-.73725-.95774-2.2049-.95774-1.4814 0-2.2393.95774-.75103.95774-.75103 2.8112z"/>
   <path d="m129.76 64.942h1.1438q1.1507 0 1.6674-.42719.51676-.42719.51676-1.2678 0-.85438-.5581-1.2265-.55811-.37207-1.6812-.37207h-1.0886zm0 1.3643v4.0239h-1.6468v-10.073h2.8456q1.9499 0 2.887.73036.93707.73036.93707 2.2049 0 1.881-1.9568 2.6803l2.8456 4.458h-1.8741l-2.4116-4.0239z"/>
  </g>
 </g>
</svg>
